M48
;Layer_Color=9474304
;FILE_FORMAT=2:5
INCH,TZ
;TYPE=PLATED
T1F00S00C0.01181
T2F00S00C0.01968
T3F00S00C0.02362
T4F00S00C0.02756
T5F00S00C0.03000
T6F00S00C0.03543
T7F00S00C0.04016
T8F00S00C0.07874
T9F00S00C0.09606
T10F00S00C0.17717
%
T01
X175591Y360236
X183465
X192913Y350000
X210630Y340551
X210236Y389370
X193307Y399606
X189764Y376772
X185827Y379134
X186221Y429134
X191339Y426378
X194095Y452756
X210236Y448032
X1489370Y448425
X1494685Y437284
X1505512Y430709
X1504291Y410748
X1489606Y392874
X1495039Y383268
X1507874Y376772
X1503701Y356339
X1488425Y350630
X1488346Y337913
X1472717Y384095
X1504587Y466673
X1505512Y481890
X1495000Y488819
X1504331Y500394
Y515748
X1507087Y531496
Y542126
X1505512Y561024
X1506299Y581102
X1482677Y600787
X1477559Y616929
X1483858Y539764
X201181
X200394Y529921
X185827Y534646
X184646Y515354
X192776Y506161
X209449Y496850
X188583Y481496
X182283Y483858
X194488Y561024
X192520Y580315
X205906Y596850
X1462205Y778740
Y868110
Y956693
Y1044488
T02
X1468110Y690945
T03
X472441Y822835
Y830709
X480315
X488189
X496063
X503937
X511811
X519685
X527559
X535433
X543307
X551181
X559055
X566929
X574803
X582677
X590551
X598425
X606299
Y822835
X598425
X590551
X582677
X574803
X566929
X559055
X551181
X543307
X535433
X527559
X519685
X511811
X503937
X496063
X488189
X480315
X464567
Y830709
X456693
Y822835
X425197
Y830709
X417323
X409449
X401575
X393701
X385827
X377953
X370079
X362205
X354331
X346457
X338583
X330709
X322835
X314961
Y822835
X322835
X330709
X338583
X346457
X354331
X362205
X370079
X377953
X385827
X393701
X401575
X409449
X417323
X307087
Y830709
X299213
X291339
X283465
X275590
Y822835
X283465
X291339
X299213
X472441Y1114173
Y1122047
X480315
X488189
X496063
X503937
X511811
X519685
X527559
X535433
X543307
X551181
X559055
X566929
X574803
X582677
X590551
X598425
X606299
Y1114173
X598425
X590551
X582677
X574803
X566929
X559055
X551181
X543307
X535433
X527559
X519685
X511811
X503937
X496063
X488189
X480315
X464567
Y1122047
X456693
Y1114173
X425197
Y1122047
X417323
X409449
X401575
X393701
X385827
X377953
X370079
X362205
X354331
X346457
X338583
X330709
X322835
X314961
Y1114173
X322835
X330709
X338583
X346457
X354331
X362205
X370079
X377953
X385827
X393701
X401575
X409449
X417323
X307087
Y1122047
X299213
X291339
X283465
X275590
Y1114173
X283465
X291339
X299213
T04
X782480Y802165
Y810039
X790354
Y802165
X774606
X766732
X758858
Y810039
X766732
X774606
X750984
X743110
Y802165
X750984
X735236
X727362
X719488
Y810039
X727362
X735236
X711614
X703740
X695866
Y802165
X703740
X711614
X687992
X680118
X672244
Y810039
X680118
X687992
X664370
X656496
X648622
X640748
Y802165
X648622
X656496
X664370
X601378
X593504
X585630
X577756
X569882
Y810039
X577756
X585630
X593504
X601378
X562008
X554134
Y802165
X562008
X546260
X538386
X530512
Y810039
X538386
X546260
X522638
X514764
X506890
Y802165
X514764
X522638
X499016
X491142
X483268
Y810039
X491142
X499016
X475394
Y802165
X467520
X459646
X451772
Y810039
X459646
X467520
X412402
Y802165
X404528
X396654
X388779
Y810039
X396654
X404528
X380906
X373031
X365158
X357283
Y802165
X365158
X373031
X380906
X349409
X341535
X333661
Y810039
X341535
X349409
X325787
X317913
Y802165
X325787
X310039
X302165
X294291
X286417
Y810039
X294291
X302165
X310039
X278543
X270669
Y802165
X278543
X262795
Y810039
X782480Y1132874
X790354
Y1140748
X782480
X774606
Y1132874
X766732
X758858
X750984
X743110
X735236
X727362
Y1140748
X735236
X743110
X750984
X758858
X766732
X719488
X711614
X703740
Y1132874
X711614
X719488
X695866
X687992
X680118
X672244
Y1140748
X664370
X656496
X648622
Y1132874
X656496
X664370
X640748
Y1140748
X680118
X687992
X695866
X601378
X593504
X585630
X577756
Y1132874
X569882
X562008
X554134
Y1140748
X562008
X569882
X546260
X538386
X530512
Y1132874
X522638
X514764
X506890
Y1140748
X499016
X491142
Y1132874
X499016
X483268
X475394
Y1140748
X483268
X514764
X522638
X538386Y1132874
X546260
X585630
X593504
X601378
X467520
X459646
X451772
Y1140748
X459646
X467520
X412402
X404528
X396654
X388779
Y1132874
X380906
X373031
X365158
Y1140748
X373031
X380906
X357283
X349410
X341535
Y1132874
X333661
X325787
X317913
Y1140748
X325787
X333661
X349410Y1132874
X357283
X396654
X404528
X412402
X310039
X302165
Y1140748
X310039
X294291
X286417
X278543
X270669
X262795
Y1132874
X270669
X278543
X286417
X294291
T05
X1519685Y334646
Y353150
Y368504
X1516142Y681496
Y704724
T06
X1494882Y793307
Y803150
Y885433
Y895276
X936929Y960472
Y970472
X926929
Y960472
X946929
X956929
X966929
X976929
X986929
X996929
X1006929
X1016929
Y970472
X1006929
X996929
X986929
X976929
X966929
X956929
X946929
X1495669Y974803
Y984646
X1496457Y1061811
Y1071653
X1066772Y1132677
Y1142677
X1056772
Y1132677
X1046772
Y1142677
X1036772
Y1132677
X1026772
Y1142677
X1016772
Y1132677
X1006772
Y1142677
X996772
Y1132677
X986772
Y1142677
X976772
Y1132677
X966772
Y1142677
X956772
Y1132677
X946772
Y1142677
X936772
Y1132677
X926772
Y1142677
X916772
Y1132677
X906772
Y1142677
X896772
Y1132677
X886772
Y1142677
X876772
Y1132677
T07
X235000Y333750
Y343750
Y353750
Y363750
Y373750
Y383750
X245000Y378750
Y368750
Y358750
Y348750
Y338750
X255000Y333750
Y343750
Y353750
Y363750
Y373750
Y383750
X265000Y378750
Y368750
Y358750
Y348750
Y338750
Y398750
Y408750
Y418750
Y428750
Y438750
Y448750
Y458750
X255000Y453750
Y443750
Y433750
Y423750
Y413750
Y403750
X245000Y398750
Y408750
Y418750
Y428750
Y438750
Y448750
Y458750
X235000Y453750
Y443750
Y433750
Y423750
Y413750
Y403750
Y463750
X255000
X315000
Y453750
Y443750
Y433750
Y423750
Y413750
Y403750
X325000Y398750
Y408750
Y418750
Y428750
Y438750
Y448750
Y458750
X335000Y453750
Y443750
Y433750
Y423750
Y413750
Y403750
X345000Y398750
Y408750
Y418750
Y428750
Y438750
Y448750
Y458750
X335000Y463750
X395000
Y453750
Y443750
Y433750
Y423750
Y413750
Y403750
X405000Y398750
Y408750
Y418750
Y428750
Y438750
Y448750
Y458750
X415000Y453750
Y443750
Y433750
Y423750
Y413750
Y403750
X425000Y398750
Y408750
Y418750
Y428750
Y438750
Y448750
Y458750
X415000Y463750
Y383750
Y373750
Y363750
Y353750
Y343750
Y333750
X405000Y338750
Y348750
Y358750
Y368750
Y378750
X395000Y373750
Y363750
Y353750
Y343750
Y333750
X425000Y338750
Y348750
Y358750
Y368750
Y378750
X395000Y383750
X345000Y378750
Y368750
Y358750
Y348750
Y338750
X335000Y333750
Y343750
Y353750
Y363750
Y373750
Y383750
X325000Y378750
Y368750
Y358750
Y348750
Y338750
X315000Y333750
Y343750
Y353750
Y363750
Y373750
Y383750
X475000
Y373750
Y363750
Y353750
Y343750
Y333750
X485000Y338750
Y348750
Y358750
Y368750
Y378750
X495000Y373750
Y363750
Y353750
Y343750
Y333750
X505000Y338750
Y348750
Y358750
Y368750
Y378750
X495000Y383750
Y403750
Y413750
Y423750
Y433750
Y443750
Y453750
Y463750
X485000Y458750
Y448750
Y438750
Y428750
Y418750
Y408750
Y398750
X475000Y403750
Y413750
Y423750
Y433750
Y443750
Y453750
Y463750
X505000Y458750
Y448750
Y438750
Y428750
Y418750
Y408750
Y398750
X555000Y403750
Y413750
Y423750
Y433750
Y443750
Y453750
Y463750
X565000Y458750
Y448750
Y438750
Y428750
Y418750
Y408750
Y398750
X575000Y403750
Y413750
Y423750
Y433750
Y443750
Y453750
Y463750
X585000Y458750
Y448750
Y438750
Y428750
Y418750
Y408750
Y398750
Y378750
Y368750
Y358750
Y348750
Y338750
X575000Y333750
Y343750
Y353750
Y363750
Y373750
Y383750
X565000Y378750
Y368750
Y358750
Y348750
Y338750
X555000Y333750
Y343750
Y353750
Y363750
Y373750
Y383750
X635000
Y373750
Y363750
Y353750
Y343750
Y333750
X645000Y338750
Y348750
Y358750
Y368750
Y378750
X655000Y373750
Y363750
Y353750
Y343750
Y333750
X665000Y338750
Y348750
Y358750
Y368750
Y378750
X655000Y383750
Y403750
Y413750
Y423750
Y433750
Y443750
Y453750
Y463750
X645000Y458750
Y448750
Y438750
Y428750
Y418750
Y408750
Y398750
X635000Y403750
Y413750
Y423750
Y433750
Y443750
Y453750
Y463750
X665000Y458750
Y448750
Y438750
Y428750
Y418750
Y408750
Y398750
X715000Y403750
Y413750
Y423750
Y433750
Y443750
Y453750
Y463750
X725000Y458750
Y448750
Y438750
Y428750
Y418750
Y408750
Y398750
X735000Y403750
Y413750
Y423750
Y433750
Y443750
Y453750
Y463750
X745000Y458750
Y448750
Y438750
Y428750
Y418750
Y408750
Y398750
Y378750
Y368750
Y358750
Y348750
Y338750
X735000Y333750
Y343750
Y353750
Y363750
Y373750
Y383750
X725000Y378750
Y368750
Y358750
Y348750
Y338750
X715000Y333750
Y343750
Y353750
Y363750
Y373750
Y383750
X795000
Y373750
Y363750
Y353750
Y343750
Y333750
X805000Y338750
Y348750
Y358750
Y368750
Y378750
X815000Y373750
Y363750
Y353750
Y343750
Y333750
X825000Y338750
Y348750
Y358750
Y368750
Y378750
X815000Y383750
Y403750
Y413750
Y423750
Y433750
Y443750
Y453750
Y463750
X805000Y458750
Y448750
Y438750
Y428750
Y418750
Y408750
Y398750
X795000Y403750
Y413750
Y423750
Y433750
Y443750
Y453750
Y463750
X825000Y458750
Y448750
Y438750
Y428750
Y418750
Y408750
Y398750
X875000Y403750
Y413750
Y423750
Y433750
Y443750
Y453750
Y463750
X885000Y458750
Y448750
Y438750
Y428750
Y418750
Y408750
Y398750
X895000Y403750
Y413750
Y423750
Y433750
Y443750
Y453750
Y463750
X905000Y458750
Y448750
Y438750
Y428750
Y418750
Y408750
Y398750
Y378750
Y368750
Y358750
Y348750
Y338750
X895000Y333750
Y343750
Y353750
Y363750
Y373750
Y383750
X885000Y378750
Y368750
Y358750
Y348750
Y338750
X875000Y333750
Y343750
Y353750
Y363750
Y373750
Y383750
X955000
Y373750
Y363750
Y353750
Y343750
Y333750
X965000Y338750
Y348750
Y358750
Y368750
Y378750
X975000Y373750
Y363750
Y353750
Y343750
Y333750
X985000Y338750
Y348750
Y358750
Y368750
Y378750
X975000Y383750
Y403750
Y413750
Y423750
Y433750
Y443750
Y453750
Y463750
X965000Y458750
Y448750
Y438750
Y428750
Y418750
Y408750
Y398750
X955000Y403750
Y413750
Y423750
Y433750
Y443750
Y453750
Y463750
X985000Y458750
Y448750
Y438750
Y428750
Y418750
Y408750
Y398750
X1035000Y403750
Y413750
Y423750
Y433750
Y443750
Y453750
Y463750
X1045000Y458750
Y448750
Y438750
Y428750
Y418750
Y408750
Y398750
X1055000Y403750
Y413750
Y423750
Y433750
Y443750
Y453750
Y463750
X1065000Y458750
Y448750
Y438750
Y428750
Y418750
Y408750
Y398750
Y378750
Y368750
Y358750
Y348750
Y338750
X1055000Y333750
Y343750
Y353750
Y363750
Y373750
Y383750
X1045000Y378750
Y368750
Y358750
Y348750
Y338750
X1035000Y333750
Y343750
Y353750
Y363750
Y373750
Y383750
X1115000
Y373750
Y363750
Y353750
Y343750
Y333750
X1125000Y338750
Y348750
Y358750
Y368750
Y378750
X1135000Y373750
Y363750
Y353750
Y343750
Y333750
X1145000Y338750
Y348750
Y358750
Y368750
Y378750
X1135000Y383750
Y403750
Y413750
Y423750
Y433750
Y443750
Y453750
Y463750
X1125000Y458750
Y448750
Y438750
Y428750
Y418750
Y408750
Y398750
X1115000Y403750
Y413750
Y423750
Y433750
Y443750
Y453750
Y463750
X1145000Y458750
Y448750
Y438750
Y428750
Y418750
Y408750
Y398750
X1195000Y403750
Y413750
Y423750
Y433750
Y443750
Y453750
Y463750
X1205000Y458750
Y448750
Y438750
Y428750
Y418750
Y408750
Y398750
X1215000Y403750
Y413750
Y423750
Y433750
Y443750
Y453750
Y463750
X1225000Y458750
Y448750
Y438750
Y428750
Y418750
Y408750
Y398750
Y378750
Y368750
Y358750
Y348750
Y338750
X1215000Y333750
Y343750
Y353750
Y363750
Y373750
Y383750
X1205000Y378750
Y368750
Y358750
Y348750
Y338750
X1195000Y333750
Y343750
Y353750
Y363750
Y373750
Y383750
X1275000
Y373750
Y363750
Y353750
Y343750
Y333750
X1285000Y338750
Y348750
Y358750
Y368750
Y378750
X1295000Y373750
Y363750
Y353750
Y343750
Y333750
X1305000Y338750
Y348750
Y358750
Y368750
Y378750
X1295000Y383750
Y403750
Y413750
Y423750
Y433750
Y443750
Y453750
Y463750
X1285000Y458750
Y448750
Y438750
Y428750
Y418750
Y408750
Y398750
X1275000Y403750
Y413750
Y423750
Y433750
Y443750
Y453750
Y463750
X1305000Y458750
Y448750
Y438750
Y428750
Y418750
Y408750
Y398750
X1355000Y403750
Y413750
Y423750
Y433750
Y443750
Y453750
Y463750
X1365000Y458750
Y448750
Y438750
Y428750
Y418750
Y408750
Y398750
X1375000Y403750
Y413750
Y423750
Y433750
Y443750
Y453750
Y463750
X1385000Y458750
Y448750
Y438750
Y428750
Y418750
Y408750
Y398750
Y378750
Y368750
Y358750
Y348750
Y338750
X1375000Y333750
Y343750
Y353750
Y363750
Y373750
Y383750
X1365000Y378750
Y368750
Y358750
Y348750
Y338750
X1355000Y333750
Y343750
Y353750
Y363750
Y373750
Y383750
X1435000
Y373750
Y363750
Y353750
Y343750
Y333750
X1445000Y338750
Y348750
Y358750
Y368750
Y378750
X1455000Y373750
Y363750
Y353750
Y343750
Y333750
X1465000Y338750
Y348750
Y358750
Y368750
Y378750
X1455000Y383750
Y403750
Y413750
Y423750
Y433750
Y443750
Y453750
Y463750
X1445000Y458750
Y448750
Y438750
Y428750
Y418750
Y408750
Y398750
X1435000Y403750
Y413750
Y423750
Y433750
Y443750
Y453750
Y463750
X1465000Y458750
Y448750
Y438750
Y428750
Y418750
Y408750
Y398750
Y468750
Y478750
Y488750
Y498750
Y508750
Y518750
Y528750
Y538750
Y548750
Y558750
Y568750
Y578750
Y588750
Y598750
Y608750
Y618750
X1455000Y613750
Y603750
Y593750
Y583750
Y573750
Y563750
Y553750
Y543750
Y533750
Y523750
Y513750
Y503750
Y493750
Y483750
Y473750
X1445000Y468750
Y478750
Y488750
Y498750
Y508750
Y518750
Y528750
Y538750
Y548750
Y558750
Y568750
Y578750
Y588750
Y598750
Y608750
Y618750
X1435000Y613750
Y603750
Y593750
Y583750
Y573750
Y563750
Y553750
Y543750
Y533750
Y523750
Y513750
Y503750
Y493750
Y483750
Y473750
Y623750
X1455000
X1385000Y618750
Y608750
Y598750
Y588750
Y578750
Y568750
Y558750
Y548750
Y538750
Y528750
Y518750
Y508750
Y498750
Y488750
Y478750
Y468750
X1375000Y473750
Y483750
Y493750
Y503750
Y513750
Y523750
Y533750
Y543750
Y553750
Y563750
Y573750
Y583750
Y593750
Y603750
Y613750
Y623750
X1365000Y618750
Y608750
Y598750
Y588750
Y578750
Y568750
Y558750
Y548750
Y538750
Y528750
Y518750
Y508750
Y498750
Y488750
Y478750
Y468750
X1355000Y473750
Y483750
Y493750
Y503750
Y513750
Y523750
Y533750
Y543750
Y553750
Y563750
Y573750
Y583750
Y593750
Y603750
Y613750
Y623750
X1305000Y618750
Y608750
Y598750
Y588750
Y578750
Y568750
Y558750
Y548750
Y538750
Y528750
Y518750
Y508750
Y498750
Y488750
Y478750
Y468750
X1295000Y473750
Y483750
Y493750
Y503750
Y513750
Y523750
Y533750
Y543750
Y553750
Y563750
Y573750
Y583750
Y593750
Y603750
Y613750
Y623750
X1285000Y618750
Y608750
Y598750
Y588750
Y578750
Y568750
Y558750
Y548750
Y538750
Y528750
Y518750
Y508750
Y498750
Y488750
Y478750
Y468750
X1275000Y473750
Y483750
Y493750
Y503750
Y513750
Y523750
Y533750
Y543750
Y553750
Y563750
Y573750
Y583750
Y593750
Y603750
Y613750
Y623750
X1225000Y618750
Y608750
Y598750
Y588750
Y578750
Y568750
Y558750
Y548750
Y538750
Y528750
Y518750
Y508750
Y498750
Y488750
Y478750
Y468750
X1215000Y473750
Y483750
Y493750
Y503750
Y513750
Y523750
Y533750
Y543750
Y553750
Y563750
Y573750
Y583750
Y593750
Y603750
Y613750
Y623750
X1205000Y618750
Y608750
Y598750
Y588750
Y578750
Y568750
Y558750
Y548750
Y538750
Y528750
Y518750
Y508750
Y498750
Y488750
Y478750
Y468750
X1195000Y473750
Y483750
Y493750
Y503750
Y513750
Y523750
Y533750
Y543750
Y553750
Y563750
Y573750
Y583750
Y593750
Y603750
Y613750
Y623750
X1145000Y618750
Y608750
Y598750
Y588750
Y578750
Y568750
Y558750
Y548750
Y538750
Y528750
Y518750
Y508750
Y498750
Y488750
Y478750
Y468750
X1135000Y473750
Y483750
Y493750
Y503750
Y513750
Y523750
Y533750
Y543750
Y553750
Y563750
Y573750
Y583750
Y593750
Y603750
Y613750
Y623750
X1125000Y618750
Y608750
Y598750
Y588750
Y578750
Y568750
Y558750
Y548750
Y538750
Y528750
Y518750
Y508750
Y498750
Y488750
Y478750
Y468750
X1115000Y473750
Y483750
Y493750
Y503750
Y513750
Y523750
Y533750
Y543750
Y553750
Y563750
Y573750
Y583750
Y593750
Y603750
Y613750
Y623750
X1065000Y618750
Y608750
Y598750
Y588750
Y578750
Y568750
Y558750
Y548750
Y538750
Y528750
Y518750
Y508750
Y498750
Y488750
Y478750
Y468750
X1055000Y473750
Y483750
Y493750
Y503750
Y513750
Y523750
Y533750
Y543750
Y553750
Y563750
Y573750
Y583750
Y593750
Y603750
Y613750
Y623750
X1045000Y618750
Y608750
Y598750
Y588750
Y578750
Y568750
Y558750
Y548750
Y538750
Y528750
Y518750
Y508750
Y498750
Y488750
Y478750
Y468750
X1035000Y473750
Y483750
Y493750
Y503750
Y513750
Y523750
Y533750
Y543750
Y553750
Y563750
Y573750
Y583750
Y593750
Y603750
Y613750
Y623750
X985000Y618750
Y608750
Y598750
Y588750
Y578750
Y568750
Y558750
Y548750
Y538750
Y528750
Y518750
Y508750
Y498750
Y488750
Y478750
Y468750
X975000Y473750
Y483750
Y493750
Y503750
Y513750
Y523750
Y533750
Y543750
Y553750
Y563750
Y573750
Y583750
Y593750
Y603750
Y613750
Y623750
X965000Y618750
Y608750
Y598750
Y588750
Y578750
Y568750
Y558750
Y548750
Y538750
Y528750
Y518750
Y508750
Y498750
Y488750
Y478750
Y468750
X955000Y473750
Y483750
Y493750
Y503750
Y513750
Y523750
Y533750
Y543750
Y553750
Y563750
Y573750
Y583750
Y593750
Y603750
Y613750
Y623750
X905000Y618750
Y608750
Y598750
Y588750
Y578750
Y568750
Y558750
Y548750
Y538750
Y528750
Y518750
Y508750
Y498750
Y488750
Y478750
Y468750
X895000Y473750
Y483750
Y493750
Y503750
Y513750
Y523750
Y533750
Y543750
Y553750
Y563750
Y573750
Y583750
Y593750
Y603750
Y613750
Y623750
X885000Y618750
Y608750
Y598750
Y588750
Y578750
Y568750
Y558750
Y548750
Y538750
Y528750
Y518750
Y508750
Y498750
Y488750
Y478750
Y468750
X875000Y473750
Y483750
Y493750
Y503750
Y513750
Y523750
Y533750
Y543750
Y553750
Y563750
Y573750
Y583750
Y593750
Y603750
Y613750
Y623750
X825000Y618750
Y608750
Y598750
Y588750
Y578750
Y568750
Y558750
Y548750
Y538750
Y528750
Y518750
Y508750
Y498750
Y488750
Y478750
Y468750
X815000Y473750
Y483750
Y493750
Y503750
Y513750
Y523750
Y533750
Y543750
Y553750
Y563750
Y573750
Y583750
Y593750
Y603750
Y613750
Y623750
X805000Y618750
Y608750
Y598750
Y588750
Y578750
Y568750
Y558750
Y548750
Y538750
Y528750
Y518750
Y508750
Y498750
Y488750
Y478750
Y468750
X795000Y473750
Y483750
Y493750
Y503750
Y513750
Y523750
Y533750
Y543750
Y553750
Y563750
Y573750
Y583750
Y593750
Y603750
Y613750
Y623750
X745000Y618750
Y608750
Y598750
Y588750
Y578750
Y568750
Y558750
Y548750
Y538750
Y528750
Y518750
Y508750
Y498750
Y488750
Y478750
Y468750
X735000Y473750
Y483750
Y493750
Y503750
Y513750
Y523750
Y533750
Y543750
Y553750
Y563750
Y573750
Y583750
Y593750
Y603750
Y613750
Y623750
X725000Y618750
Y608750
Y598750
Y588750
Y578750
Y568750
Y558750
Y548750
Y538750
Y528750
Y518750
Y508750
Y498750
Y488750
Y478750
Y468750
X715000Y473750
Y483750
Y493750
Y503750
Y513750
Y523750
Y533750
Y543750
Y553750
Y563750
Y573750
Y583750
Y593750
Y603750
Y613750
Y623750
X665000Y618750
Y608750
Y598750
Y588750
Y578750
Y568750
Y558750
Y548750
Y538750
Y528750
Y518750
Y508750
Y498750
Y488750
Y478750
Y468750
X655000Y473750
Y483750
Y493750
Y503750
Y513750
Y523750
Y533750
Y543750
Y553750
Y563750
Y573750
Y583750
Y593750
Y603750
Y613750
Y623750
X645000Y618750
Y608750
Y598750
Y588750
Y578750
Y568750
Y558750
Y548750
Y538750
Y528750
Y518750
Y508750
Y498750
Y488750
Y478750
Y468750
X635000Y473750
Y483750
Y493750
Y503750
Y513750
Y523750
Y533750
Y543750
Y553750
Y563750
Y573750
Y583750
Y593750
Y603750
Y613750
Y623750
X585000Y618750
Y608750
Y598750
Y588750
Y578750
Y568750
Y558750
Y548750
Y538750
Y528750
Y518750
Y508750
Y498750
Y488750
Y478750
Y468750
X575000Y473750
Y483750
Y493750
Y503750
Y513750
Y523750
Y533750
Y543750
Y553750
Y563750
Y573750
Y583750
Y593750
Y603750
Y613750
Y623750
X565000Y618750
Y608750
Y598750
Y588750
Y578750
Y568750
Y558750
Y548750
Y538750
Y528750
Y518750
Y508750
Y498750
Y488750
Y478750
Y468750
X555000Y473750
Y483750
Y493750
Y503750
Y513750
Y523750
Y533750
Y543750
Y553750
Y563750
Y573750
Y583750
Y593750
Y603750
Y613750
Y623750
X505000Y618750
Y608750
Y598750
Y588750
Y578750
Y568750
Y558750
Y548750
Y538750
Y528750
Y518750
Y508750
Y498750
Y488750
Y478750
Y468750
X495000Y473750
Y483750
Y493750
Y503750
Y513750
Y523750
Y533750
Y543750
Y553750
Y563750
Y573750
Y583750
Y593750
Y603750
Y613750
Y623750
X485000Y618750
Y608750
Y598750
Y588750
Y578750
Y568750
Y558750
Y548750
Y538750
Y528750
Y518750
Y508750
Y498750
Y488750
Y478750
Y468750
X475000Y473750
Y483750
Y493750
Y503750
Y513750
Y523750
Y533750
Y543750
Y553750
Y563750
Y573750
Y583750
Y593750
Y603750
Y613750
Y623750
X425000Y618750
Y608750
Y598750
Y588750
Y578750
Y568750
Y558750
Y548750
Y538750
Y528750
Y518750
Y508750
Y498750
Y488750
Y478750
Y468750
X415000Y473750
Y483750
Y493750
Y503750
Y513750
Y523750
Y533750
Y543750
Y553750
Y563750
Y573750
Y583750
Y593750
Y603750
Y613750
Y623750
X405000Y618750
Y608750
Y598750
Y588750
Y578750
Y568750
Y558750
Y548750
Y538750
Y528750
Y518750
Y508750
Y498750
Y488750
Y478750
Y468750
X395000Y473750
Y483750
Y493750
Y503750
Y513750
Y523750
Y533750
Y543750
Y553750
Y563750
Y573750
Y583750
Y593750
Y603750
Y613750
Y623750
X345000Y618750
Y608750
Y598750
Y588750
Y578750
Y568750
Y558750
Y548750
Y538750
Y528750
Y518750
Y508750
Y498750
Y488750
Y478750
Y468750
X335000Y473750
Y483750
Y493750
Y503750
Y513750
Y523750
Y533750
Y543750
Y553750
Y563750
Y573750
Y583750
Y593750
Y603750
Y613750
Y623750
X325000Y618750
Y608750
Y598750
Y588750
Y578750
Y568750
Y558750
Y548750
Y538750
Y528750
Y518750
Y508750
Y498750
Y488750
Y478750
Y468750
X315000Y473750
Y483750
Y493750
Y503750
Y513750
Y523750
Y533750
Y543750
Y553750
Y563750
Y573750
Y583750
Y593750
Y603750
Y613750
Y623750
X265000Y618750
Y608750
Y598750
Y588750
Y578750
Y568750
Y558750
Y548750
Y538750
Y528750
Y518750
Y508750
Y498750
Y488750
Y478750
Y468750
X255000Y473750
Y483750
Y493750
Y503750
Y513750
Y523750
Y533750
Y543750
Y553750
Y563750
Y573750
Y583750
Y593750
Y603750
Y613750
Y623750
X245000Y618750
Y608750
Y598750
Y588750
Y578750
Y568750
Y558750
Y548750
Y538750
Y528750
Y518750
Y508750
Y498750
Y488750
Y478750
Y468750
X235000Y473750
Y483750
Y493750
Y503750
Y513750
Y523750
Y533750
Y543750
Y553750
Y563750
Y573750
Y583750
Y593750
Y603750
Y613750
Y623750
Y633750
X245000Y628750
Y638750
X255000Y633750
X265000Y638750
Y628750
X315000Y633750
X325000Y628750
Y638750
X335000Y633750
X345000Y638750
Y628750
X395000Y633750
X405000Y628750
Y638750
X415000Y633750
X425000Y638750
Y628750
X475000Y633750
X485000Y628750
Y638750
X495000Y633750
X505000Y638750
Y628750
X555000Y633750
X565000Y628750
Y638750
X575000Y633750
X585000Y638750
Y628750
X635000Y633750
X645000Y628750
Y638750
X655000Y633750
X665000Y638750
Y628750
X715000Y633750
X725000Y628750
Y638750
X735000Y633750
X745000Y638750
Y628750
X795000Y633750
X805000Y628750
Y638750
X815000Y633750
X825000Y638750
Y628750
X875000Y633750
X885000Y628750
Y638750
X895000Y633750
X905000Y638750
Y628750
X955000Y633750
X965000Y628750
Y638750
X975000Y633750
X985000Y638750
Y628750
X1035000Y633750
X1045000Y628750
Y638750
X1055000Y633750
X1065000Y638750
Y628750
X1115000Y633750
X1125000Y628750
Y638750
X1135000Y633750
X1145000Y638750
Y628750
X1195000Y633750
X1205000Y628750
Y638750
X1215000Y633750
X1225000Y638750
Y628750
X1275000Y633750
X1285000Y628750
Y638750
X1295000Y633750
X1305000Y638750
Y628750
X1355000Y633750
X1365000Y628750
Y638750
X1375000Y633750
X1385000Y638750
Y628750
X1435000Y633750
X1445000Y628750
Y638750
X1455000Y633750
X1465000Y638750
Y628750
T08
X1514961Y773228
Y813386
Y865354
Y905512
X1515748Y954724
Y994882
X1516535Y1041732
Y1081890
T09
X250000Y391250
X330000
X410000
X490000
X570000
X650000
X730000
X810000
X890000
X970000
X1050000
X1130000
X1210000
X1290000
X1370000
X1450000
X250000Y646250
X330000
X410000
X490000
X570000
X650000
X730000
X810000
X890000
X970000
X1050000
X1130000
X1210000
X1290000
X1370000
X1450000
T10
X1496063Y307087
X846457
X196850
X1496063Y1181102
X846457
X196850
M30
