%FSLAX25Y25*%
%MOIN*%
G70*
G01*
G75*
G04 Layer_Color=32896*
%ADD10R,0.05512X0.05906*%
%ADD11R,0.05512X0.04331*%
%ADD12R,0.05709X0.02165*%
%ADD13R,0.05709X0.02165*%
%ADD14R,0.04331X0.06693*%
%ADD15R,0.08661X0.07874*%
%ADD16C,0.00500*%
%ADD17C,0.01181*%
%ADD18C,0.01969*%
%ADD19C,0.04724*%
%ADD20R,0.04724X0.04724*%
%ADD21R,0.05906X0.05906*%
%ADD22C,0.05906*%
%ADD23C,0.12992*%
%ADD24C,0.11811*%
%ADD25R,0.06378X0.06378*%
%ADD26C,0.06378*%
%ADD27C,0.08425*%
%ADD28C,0.21654*%
%ADD29C,0.02362*%
%ADD30C,0.03937*%
%ADD31O,0.08661X0.02362*%
%ADD32R,0.04331X0.05512*%
%ADD33C,0.00787*%
%ADD34C,0.00394*%
%ADD35C,0.00098*%
%ADD36C,0.00984*%
%ADD37C,0.01000*%
%ADD38C,0.00098*%
%ADD39C,0.00800*%
%ADD40C,0.00591*%
%ADD41R,0.06312X0.06706*%
%ADD42R,0.06312X0.05131*%
%ADD43R,0.06509X0.02965*%
%ADD44R,0.06509X0.02965*%
%ADD45R,0.05131X0.07493*%
%ADD46R,0.09461X0.08674*%
%ADD47C,0.05524*%
%ADD48R,0.05524X0.05524*%
%ADD49R,0.06706X0.06706*%
%ADD50C,0.06706*%
%ADD51C,0.13792*%
%ADD52C,0.12611*%
%ADD53R,0.07178X0.07178*%
%ADD54C,0.07178*%
%ADD55C,0.09225*%
%ADD56C,0.22453*%
%ADD57C,0.03162*%
%ADD58C,0.04737*%
%ADD59O,0.09461X0.03162*%
%ADD60R,0.05131X0.06312*%
D33*
X206693Y541339D02*
X213779D01*
X206693Y580709D02*
X213779D01*
X206693Y541339D02*
Y580709D01*
X213779Y541339D02*
Y580709D01*
X206693Y488976D02*
X213779D01*
X206693Y528346D02*
X213779D01*
X206693Y488976D02*
Y528346D01*
X213779Y488976D02*
Y528346D01*
Y437795D02*
Y477165D01*
X206693Y437795D02*
Y477165D01*
X213779D01*
X206693Y437795D02*
X213779D01*
Y384252D02*
Y423622D01*
X206693Y384252D02*
Y423622D01*
X213779D01*
X206693Y384252D02*
X213779D01*
Y335433D02*
Y374803D01*
X206693Y335433D02*
Y374803D01*
X213779D01*
X206693Y335433D02*
X213779D01*
X1492520Y555512D02*
Y594882D01*
X1485433Y555512D02*
Y594882D01*
X1492520D01*
X1485433Y555512D02*
X1492520D01*
Y495669D02*
Y535039D01*
X1485433Y495669D02*
Y535039D01*
X1492520D01*
X1485433Y495669D02*
X1492520D01*
X1492126Y444488D02*
Y483858D01*
X1485039Y444488D02*
Y483858D01*
X1492126D01*
X1485039Y444488D02*
X1492126D01*
Y390551D02*
Y429921D01*
X1485039Y390551D02*
Y429921D01*
X1492126D01*
X1485039Y390551D02*
X1492126D01*
X1492008Y336378D02*
Y375748D01*
X1484921Y336378D02*
Y375748D01*
X1492008D01*
X1484921Y336378D02*
X1492008D01*
D36*
X220177Y581870D02*
G03*
X220177Y581870I-492J0D01*
G01*
Y529508D02*
G03*
X220177Y529508I-492J0D01*
G01*
Y478327D02*
G03*
X220177Y478327I-492J0D01*
G01*
Y424784D02*
G03*
X220177Y424784I-492J0D01*
G01*
Y375965D02*
G03*
X220177Y375965I-492J0D01*
G01*
X1498917Y596043D02*
G03*
X1498917Y596043I-492J0D01*
G01*
Y536201D02*
G03*
X1498917Y536201I-492J0D01*
G01*
X1498524Y485020D02*
G03*
X1498524Y485020I-492J0D01*
G01*
Y431083D02*
G03*
X1498524Y431083I-492J0D01*
G01*
X1498405Y376909D02*
G03*
X1498405Y376909I-492J0D01*
G01*
D37*
X224162Y591804D02*
Y586806D01*
X223163Y585806D01*
X221163D01*
X220163Y586806D01*
Y591804D01*
X218164Y585806D02*
X216165D01*
X217164D01*
Y591804D01*
X218164Y590805D01*
X190465Y538857D02*
X191465Y539857D01*
X193464D01*
X194464Y538857D01*
Y534859D01*
X193464Y533859D01*
X191465D01*
X190465Y534859D01*
X184467Y533859D02*
X188466D01*
X184467Y537858D01*
Y538857D01*
X185467Y539857D01*
X187466D01*
X188466Y538857D01*
X199163Y601073D02*
X200163Y602073D01*
X202163D01*
X203162Y601073D01*
Y597075D01*
X202163Y596075D01*
X200163D01*
X199163Y597075D01*
X197164Y596075D02*
X195165D01*
X196165D01*
Y602073D01*
X197164Y601073D01*
X190482Y486492D02*
X191482Y487492D01*
X193481D01*
X194481Y486492D01*
Y482493D01*
X193481Y481494D01*
X191482D01*
X190482Y482493D01*
X188483Y486492D02*
X187483Y487492D01*
X185484D01*
X184484Y486492D01*
Y485492D01*
X185484Y484493D01*
X186484D01*
X185484D01*
X184484Y483493D01*
Y482493D01*
X185484Y481494D01*
X187483D01*
X188483Y482493D01*
X182485D02*
X181485Y481494D01*
X179486D01*
X178486Y482493D01*
Y486492D01*
X179486Y487492D01*
X181485D01*
X182485Y486492D01*
Y485492D01*
X181485Y484493D01*
X178486D01*
X190089Y432224D02*
X191088Y433223D01*
X193088D01*
X194087Y432224D01*
Y428225D01*
X193088Y427225D01*
X191088D01*
X190089Y428225D01*
X185090Y427225D02*
Y433223D01*
X188089Y430224D01*
X184091D01*
X182091Y432224D02*
X181092Y433223D01*
X179092D01*
X178093Y432224D01*
Y428225D01*
X179092Y427225D01*
X181092D01*
X182091Y428225D01*
Y432224D01*
X190074Y382256D02*
X191074Y383255D01*
X193073D01*
X194073Y382256D01*
Y378257D01*
X193073Y377257D01*
X191074D01*
X190074Y378257D01*
X185076Y377257D02*
Y383255D01*
X188075Y380256D01*
X184076D01*
X182077Y377257D02*
X180077D01*
X181077D01*
Y383255D01*
X182077Y382256D01*
X1475514Y615242D02*
X1476514Y616242D01*
X1478513D01*
X1479513Y615242D01*
Y611244D01*
X1478513Y610244D01*
X1476514D01*
X1475514Y611244D01*
X1470516Y610244D02*
Y616242D01*
X1473514Y613243D01*
X1469516D01*
X1463518Y610244D02*
X1467517D01*
X1463518Y614243D01*
Y615242D01*
X1464517Y616242D01*
X1466517D01*
X1467517Y615242D01*
X1476337Y551087D02*
X1477337Y552086D01*
X1479336D01*
X1480336Y551087D01*
Y547088D01*
X1479336Y546088D01*
X1477337D01*
X1476337Y547088D01*
X1471339Y546088D02*
Y552086D01*
X1474338Y549087D01*
X1470339D01*
X1468340Y551087D02*
X1467340Y552086D01*
X1465341D01*
X1464341Y551087D01*
Y550087D01*
X1465341Y549087D01*
X1466341D01*
X1465341D01*
X1464341Y548088D01*
Y547088D01*
X1465341Y546088D01*
X1467340D01*
X1468340Y547088D01*
X1477125Y498323D02*
X1478124Y499323D01*
X1480124D01*
X1481123Y498323D01*
Y494324D01*
X1480124Y493325D01*
X1478124D01*
X1477125Y494324D01*
X1472126Y493325D02*
Y499323D01*
X1475125Y496324D01*
X1471127D01*
X1466128Y493325D02*
Y499323D01*
X1469127Y496324D01*
X1465129D01*
X1478639Y445998D02*
X1479639Y446998D01*
X1481638D01*
X1482638Y445998D01*
Y442000D01*
X1481638Y441000D01*
X1479639D01*
X1478639Y442000D01*
X1473641Y441000D02*
Y446998D01*
X1476640Y443999D01*
X1472641D01*
X1466643Y446998D02*
X1470642D01*
Y443999D01*
X1468642Y444999D01*
X1467643D01*
X1466643Y443999D01*
Y442000D01*
X1467643Y441000D01*
X1469642D01*
X1470642Y442000D01*
X1481435Y393176D02*
X1482435Y394176D01*
X1484434D01*
X1485434Y393176D01*
Y389178D01*
X1484434Y388178D01*
X1482435D01*
X1481435Y389178D01*
X1476437Y388178D02*
Y394176D01*
X1479436Y391177D01*
X1475437D01*
X1469439Y394176D02*
X1471438Y393176D01*
X1473438Y391177D01*
Y389178D01*
X1472438Y388178D01*
X1470439D01*
X1469439Y389178D01*
Y390177D01*
X1470439Y391177D01*
X1473438D01*
X1502950Y606034D02*
Y601036D01*
X1501951Y600036D01*
X1499951D01*
X1498952Y601036D01*
Y606034D01*
X1492954Y600036D02*
X1496952D01*
X1492954Y604035D01*
Y605034D01*
X1493953Y606034D01*
X1495953D01*
X1496952Y605034D01*
X224179Y488295D02*
Y483296D01*
X223179Y482297D01*
X221180D01*
X220180Y483296D01*
Y488295D01*
X215182Y482297D02*
Y488295D01*
X218181Y485296D01*
X214182D01*
X224194Y434755D02*
Y429756D01*
X223194Y428757D01*
X221195D01*
X220195Y429756D01*
Y434755D01*
X214197D02*
X218196D01*
Y431756D01*
X216196Y432755D01*
X215197D01*
X214197Y431756D01*
Y429756D01*
X215197Y428757D01*
X217196D01*
X218196Y429756D01*
X224206Y385985D02*
Y380987D01*
X223207Y379987D01*
X221207D01*
X220208Y380987D01*
Y385985D01*
X214210D02*
X216209Y384986D01*
X218208Y382986D01*
Y380987D01*
X217209Y379987D01*
X215209D01*
X214210Y380987D01*
Y381987D01*
X215209Y382986D01*
X218208D01*
X1502932Y546192D02*
Y541193D01*
X1501933Y540194D01*
X1499933D01*
X1498934Y541193D01*
Y546192D01*
X1496934D02*
X1492935D01*
Y545192D01*
X1496934Y541193D01*
Y540194D01*
X1502592Y494968D02*
Y489970D01*
X1501592Y488970D01*
X1499593D01*
X1498593Y489970D01*
Y494968D01*
X1496594Y493968D02*
X1495594Y494968D01*
X1493595D01*
X1492595Y493968D01*
Y492969D01*
X1493595Y491969D01*
X1492595Y490969D01*
Y489970D01*
X1493595Y488970D01*
X1495594D01*
X1496594Y489970D01*
Y490969D01*
X1495594Y491969D01*
X1496594Y492969D01*
Y493968D01*
X1495594Y491969D02*
X1493595D01*
X1502513Y441073D02*
Y436074D01*
X1501513Y435075D01*
X1499514D01*
X1498514Y436074D01*
Y441073D01*
X1496515Y436074D02*
X1495515Y435075D01*
X1493515D01*
X1492516Y436074D01*
Y440073D01*
X1493515Y441073D01*
X1495515D01*
X1496515Y440073D01*
Y439074D01*
X1495515Y438074D01*
X1492516D01*
X1502420Y386926D02*
Y381927D01*
X1501420Y380928D01*
X1499421D01*
X1498421Y381927D01*
Y386926D01*
X1496422Y380928D02*
X1494422D01*
X1495422D01*
Y386926D01*
X1496422Y385926D01*
X1491423D02*
X1490424Y386926D01*
X1488424D01*
X1487424Y385926D01*
Y381927D01*
X1488424Y380928D01*
X1490424D01*
X1491423Y381927D01*
Y385926D01*
X224174Y539504D02*
Y534505D01*
X223174Y533505D01*
X221175D01*
X220175Y534505D01*
Y539504D01*
X218176Y538504D02*
X217176Y539504D01*
X215177D01*
X214177Y538504D01*
Y537504D01*
X215177Y536505D01*
X216177D01*
X215177D01*
X214177Y535505D01*
Y534505D01*
X215177Y533505D01*
X217176D01*
X218176Y534505D01*
M02*
