%FSLAX25Y25*%
%MOIN*%
G70*
G01*
G75*
G04 Layer_Color=8421504*
%ADD10R,0.05512X0.05906*%
%ADD11R,0.05512X0.04331*%
%ADD12R,0.05709X0.02165*%
%ADD13R,0.05709X0.02165*%
%ADD14R,0.04331X0.06693*%
%ADD15R,0.08661X0.07874*%
%ADD16C,0.00500*%
%ADD17C,0.01181*%
%ADD18C,0.01969*%
%ADD19C,0.04724*%
%ADD20R,0.04724X0.04724*%
%ADD21R,0.05906X0.05906*%
%ADD22C,0.05906*%
%ADD23C,0.12992*%
%ADD24C,0.11811*%
%ADD25R,0.06378X0.06378*%
%ADD26C,0.06378*%
%ADD27C,0.08425*%
%ADD28C,0.21654*%
%ADD29C,0.02362*%
%ADD30C,0.03937*%
%ADD31O,0.08661X0.02362*%
%ADD32R,0.04331X0.05512*%
%ADD33C,0.00787*%
%ADD34C,0.00394*%
%ADD35C,0.00098*%
%ADD36C,0.00984*%
%ADD37C,0.01000*%
%ADD38C,0.00098*%
%ADD39C,0.00800*%
%ADD40C,0.00591*%
D10*
X898819Y924409D02*
D03*
X906693D02*
D03*
X898819Y888189D02*
D03*
X906693D02*
D03*
X898819Y915354D02*
D03*
X906693D02*
D03*
X898819Y878740D02*
D03*
X906693D02*
D03*
X898819Y869685D02*
D03*
X906693D02*
D03*
X898425Y905906D02*
D03*
X906299D02*
D03*
X898819Y860236D02*
D03*
X906693D02*
D03*
X898819Y897244D02*
D03*
X906693D02*
D03*
X886614Y860236D02*
D03*
X878740D02*
D03*
X886614Y869685D02*
D03*
X878740D02*
D03*
X886614Y878740D02*
D03*
X878740D02*
D03*
X886614Y888189D02*
D03*
X878740D02*
D03*
X886614Y897244D02*
D03*
X878740D02*
D03*
X886614Y905906D02*
D03*
X878740D02*
D03*
X886614Y915354D02*
D03*
X878740D02*
D03*
X886614Y924409D02*
D03*
X878740D02*
D03*
D11*
X1454724Y782874D02*
D03*
Y788779D02*
D03*
Y870669D02*
D03*
Y876575D02*
D03*
X1454331Y1047835D02*
D03*
Y1053740D02*
D03*
X1455118Y960433D02*
D03*
Y966339D02*
D03*
X298819Y636417D02*
D03*
Y630512D02*
D03*
X618110Y634842D02*
D03*
Y628937D02*
D03*
X937795Y634842D02*
D03*
Y628937D02*
D03*
X1257874Y634449D02*
D03*
Y628543D02*
D03*
X1318898Y338779D02*
D03*
Y332874D02*
D03*
X1239370Y334449D02*
D03*
Y340354D02*
D03*
X998032Y338779D02*
D03*
Y332874D02*
D03*
X918898Y334842D02*
D03*
Y340748D02*
D03*
X678346Y339173D02*
D03*
Y333268D02*
D03*
X597244Y336024D02*
D03*
Y341929D02*
D03*
X358661Y339567D02*
D03*
Y333661D02*
D03*
X287795Y333661D02*
D03*
Y339567D02*
D03*
X1250394Y634449D02*
D03*
Y628543D02*
D03*
X930709Y634842D02*
D03*
Y628937D02*
D03*
X610630Y634842D02*
D03*
Y628937D02*
D03*
X290945Y636417D02*
D03*
Y630512D02*
D03*
X1328740Y338779D02*
D03*
Y332874D02*
D03*
X1249213Y334449D02*
D03*
Y340354D02*
D03*
X1008268Y338779D02*
D03*
Y332874D02*
D03*
X928740Y334842D02*
D03*
Y340748D02*
D03*
X688189Y339173D02*
D03*
Y333268D02*
D03*
X607874Y336024D02*
D03*
Y341929D02*
D03*
X369291Y339567D02*
D03*
Y333661D02*
D03*
X278740Y334055D02*
D03*
Y339961D02*
D03*
D12*
X1467027Y1054134D02*
D03*
Y1057874D02*
D03*
Y1061614D02*
D03*
X1475492D02*
D03*
Y1057874D02*
D03*
X1467027Y967126D02*
D03*
Y970866D02*
D03*
Y974606D02*
D03*
X1475492D02*
D03*
Y970866D02*
D03*
X1467421Y877756D02*
D03*
Y881496D02*
D03*
Y885236D02*
D03*
X1475886D02*
D03*
Y881496D02*
D03*
X1466634Y785630D02*
D03*
Y789370D02*
D03*
Y793110D02*
D03*
X1475098D02*
D03*
Y789370D02*
D03*
D13*
X1475492Y1054134D02*
D03*
Y967126D02*
D03*
X1475886Y877756D02*
D03*
X1475098Y785630D02*
D03*
D14*
X1479724Y359842D02*
D03*
X1490354D02*
D03*
X1490315Y370000D02*
D03*
X1479685D02*
D03*
Y380000D02*
D03*
X1490315D02*
D03*
Y400000D02*
D03*
X1479685D02*
D03*
X1490315Y410000D02*
D03*
X1479685D02*
D03*
Y420000D02*
D03*
X1490315D02*
D03*
Y430000D02*
D03*
X1479685D02*
D03*
X1478937Y440551D02*
D03*
X1489567D02*
D03*
X1490315Y470000D02*
D03*
X1479685D02*
D03*
Y460000D02*
D03*
X1490315D02*
D03*
X1479685Y480000D02*
D03*
X1490315D02*
D03*
X1479685Y490000D02*
D03*
X1490315D02*
D03*
Y500000D02*
D03*
X1479685D02*
D03*
Y510000D02*
D03*
X1490315D02*
D03*
Y520000D02*
D03*
X1479685D02*
D03*
Y530000D02*
D03*
X1490315D02*
D03*
Y550000D02*
D03*
X1479685D02*
D03*
Y560000D02*
D03*
X1490315D02*
D03*
Y570000D02*
D03*
X1479685D02*
D03*
Y580000D02*
D03*
X1490315D02*
D03*
X209685Y355000D02*
D03*
X220315D02*
D03*
X209685Y370000D02*
D03*
X220315D02*
D03*
X220276Y395669D02*
D03*
X209646D02*
D03*
X220276Y383071D02*
D03*
X209646D02*
D03*
X220276Y409842D02*
D03*
X209646D02*
D03*
X209685Y420000D02*
D03*
X220315D02*
D03*
X209685Y430000D02*
D03*
X220315D02*
D03*
X209685Y440000D02*
D03*
X220315D02*
D03*
Y460000D02*
D03*
X209685D02*
D03*
Y470000D02*
D03*
X220315D02*
D03*
Y480000D02*
D03*
X209685D02*
D03*
Y490000D02*
D03*
X220315D02*
D03*
Y505000D02*
D03*
X209685D02*
D03*
Y515000D02*
D03*
X220315D02*
D03*
Y525000D02*
D03*
X209685D02*
D03*
X220315Y545000D02*
D03*
X209685D02*
D03*
Y535000D02*
D03*
X220315D02*
D03*
X209685Y555000D02*
D03*
X220315D02*
D03*
Y565000D02*
D03*
X209685D02*
D03*
Y575000D02*
D03*
X220315D02*
D03*
D15*
X280315Y626772D02*
D03*
Y638583D02*
D03*
X600394Y625197D02*
D03*
Y637008D02*
D03*
X920472Y625984D02*
D03*
Y637795D02*
D03*
X1240158Y625591D02*
D03*
Y637402D02*
D03*
X1340158Y329528D02*
D03*
Y341339D02*
D03*
X1260630Y342126D02*
D03*
Y330315D02*
D03*
X1020472Y329528D02*
D03*
Y341339D02*
D03*
X941339Y342126D02*
D03*
Y330315D02*
D03*
X700787Y329134D02*
D03*
Y340945D02*
D03*
X620472Y342913D02*
D03*
Y331102D02*
D03*
X381496Y330315D02*
D03*
Y342126D02*
D03*
X299606Y342520D02*
D03*
Y330709D02*
D03*
M02*
