%FSLAX25Y25*%
%MOIN*%
G70*
G01*
G75*
G04 Layer_Color=128*
%ADD10R,0.05512X0.05906*%
%ADD11R,0.05512X0.04331*%
%ADD12R,0.05709X0.02165*%
%ADD13R,0.05709X0.02165*%
%ADD14R,0.04331X0.06693*%
%ADD15R,0.08661X0.07874*%
%ADD16C,0.00500*%
%ADD17C,0.01181*%
%ADD18C,0.01969*%
%ADD19C,0.04724*%
%ADD20R,0.04724X0.04724*%
%ADD21R,0.05906X0.05906*%
%ADD22C,0.05906*%
%ADD23C,0.12992*%
%ADD24C,0.11811*%
%ADD25R,0.06378X0.06378*%
%ADD26C,0.06378*%
%ADD27C,0.08425*%
%ADD28C,0.21654*%
%ADD29C,0.02362*%
%ADD30C,0.03937*%
%ADD31O,0.08661X0.02362*%
%ADD32R,0.04331X0.05512*%
%ADD33C,0.00787*%
%ADD34C,0.00394*%
%ADD35C,0.00098*%
%ADD36C,0.00984*%
%ADD37C,0.01000*%
%ADD38C,0.00098*%
%ADD39C,0.00800*%
%ADD40C,0.00591*%
%ADD41R,0.06312X0.06706*%
%ADD42R,0.06312X0.05131*%
%ADD43R,0.06509X0.02965*%
%ADD44R,0.06509X0.02965*%
%ADD45R,0.05131X0.07493*%
%ADD46R,0.09461X0.08674*%
%ADD47C,0.05524*%
%ADD48R,0.05524X0.05524*%
%ADD49R,0.06706X0.06706*%
%ADD50C,0.06706*%
%ADD51C,0.13792*%
%ADD52C,0.12611*%
%ADD53R,0.07178X0.07178*%
%ADD54C,0.07178*%
%ADD55C,0.09225*%
%ADD56C,0.22453*%
%ADD57C,0.03162*%
%ADD58C,0.04737*%
%ADD59O,0.09461X0.03162*%
%ADD60R,0.05131X0.06312*%
D11*
X200787Y590354D02*
D03*
Y584449D02*
D03*
X1477165Y598622D02*
D03*
Y604528D02*
D03*
D31*
X200787Y543524D02*
D03*
Y548524D02*
D03*
Y553524D02*
D03*
Y558524D02*
D03*
Y563524D02*
D03*
Y568524D02*
D03*
Y573524D02*
D03*
Y578524D02*
D03*
X219685Y543524D02*
D03*
Y548524D02*
D03*
Y553524D02*
D03*
Y558524D02*
D03*
Y563524D02*
D03*
Y568524D02*
D03*
Y573524D02*
D03*
Y578524D02*
D03*
X200787Y491161D02*
D03*
Y496161D02*
D03*
Y501161D02*
D03*
Y506161D02*
D03*
Y511161D02*
D03*
Y516161D02*
D03*
Y521161D02*
D03*
Y526161D02*
D03*
X219685Y491161D02*
D03*
Y496161D02*
D03*
Y501161D02*
D03*
Y506161D02*
D03*
Y511161D02*
D03*
Y516161D02*
D03*
Y521161D02*
D03*
Y526161D02*
D03*
Y474980D02*
D03*
Y469980D02*
D03*
Y464980D02*
D03*
Y459980D02*
D03*
Y454980D02*
D03*
Y449980D02*
D03*
Y444980D02*
D03*
Y439980D02*
D03*
X200787Y474980D02*
D03*
Y469980D02*
D03*
Y464980D02*
D03*
Y459980D02*
D03*
Y454980D02*
D03*
Y449980D02*
D03*
Y444980D02*
D03*
Y439980D02*
D03*
X219685Y421437D02*
D03*
Y416437D02*
D03*
Y411437D02*
D03*
Y406437D02*
D03*
Y401437D02*
D03*
Y396437D02*
D03*
Y391437D02*
D03*
Y386437D02*
D03*
X200787Y421437D02*
D03*
Y416437D02*
D03*
Y411437D02*
D03*
Y406437D02*
D03*
Y401437D02*
D03*
Y396437D02*
D03*
Y391437D02*
D03*
Y386437D02*
D03*
X219685Y372618D02*
D03*
Y367618D02*
D03*
Y362618D02*
D03*
Y357618D02*
D03*
Y352618D02*
D03*
Y347618D02*
D03*
Y342618D02*
D03*
Y337618D02*
D03*
X200787Y372618D02*
D03*
Y367618D02*
D03*
Y362618D02*
D03*
Y357618D02*
D03*
Y352618D02*
D03*
Y347618D02*
D03*
Y342618D02*
D03*
Y337618D02*
D03*
X1498425Y592697D02*
D03*
Y587697D02*
D03*
Y582697D02*
D03*
Y577697D02*
D03*
Y572697D02*
D03*
Y567697D02*
D03*
Y562697D02*
D03*
Y557697D02*
D03*
X1479528Y592697D02*
D03*
Y587697D02*
D03*
Y582697D02*
D03*
Y577697D02*
D03*
Y572697D02*
D03*
Y567697D02*
D03*
Y562697D02*
D03*
Y557697D02*
D03*
X1498425Y532854D02*
D03*
Y527854D02*
D03*
Y522854D02*
D03*
Y517854D02*
D03*
Y512854D02*
D03*
Y507854D02*
D03*
Y502854D02*
D03*
Y497854D02*
D03*
X1479528Y532854D02*
D03*
Y527854D02*
D03*
Y522854D02*
D03*
Y517854D02*
D03*
Y512854D02*
D03*
Y507854D02*
D03*
Y502854D02*
D03*
Y497854D02*
D03*
X1498032Y481673D02*
D03*
Y476673D02*
D03*
Y471673D02*
D03*
Y466673D02*
D03*
Y461673D02*
D03*
Y456673D02*
D03*
Y451673D02*
D03*
Y446673D02*
D03*
X1479134Y481673D02*
D03*
Y476673D02*
D03*
Y471673D02*
D03*
Y466673D02*
D03*
Y461673D02*
D03*
Y456673D02*
D03*
Y451673D02*
D03*
Y446673D02*
D03*
X1498032Y427736D02*
D03*
Y422736D02*
D03*
Y417736D02*
D03*
Y412736D02*
D03*
Y407736D02*
D03*
Y402736D02*
D03*
Y397736D02*
D03*
Y392736D02*
D03*
X1479134Y427736D02*
D03*
Y422736D02*
D03*
Y417736D02*
D03*
Y412736D02*
D03*
Y407736D02*
D03*
Y402736D02*
D03*
Y397736D02*
D03*
Y392736D02*
D03*
X1497913Y373563D02*
D03*
Y368563D02*
D03*
Y363563D02*
D03*
Y358563D02*
D03*
Y353563D02*
D03*
Y348563D02*
D03*
Y343563D02*
D03*
Y338563D02*
D03*
X1479016Y373563D02*
D03*
Y368563D02*
D03*
Y363563D02*
D03*
Y358563D02*
D03*
Y353563D02*
D03*
Y348563D02*
D03*
Y343563D02*
D03*
Y338563D02*
D03*
D32*
X186811Y527559D02*
D03*
X192717D02*
D03*
Y475197D02*
D03*
X186811D02*
D03*
X192323Y420866D02*
D03*
X186417D02*
D03*
X192323Y370866D02*
D03*
X186417D02*
D03*
X1477756Y381850D02*
D03*
X1483661D02*
D03*
X1480906Y434646D02*
D03*
X1475000D02*
D03*
X1479331Y487008D02*
D03*
X1473425D02*
D03*
X1478543Y539764D02*
D03*
X1472638D02*
D03*
M02*
