%FSLAX25Y25*%
%MOIN*%
G70*
G01*
G75*
G04 Layer_Color=16711935*
%ADD10R,0.05512X0.05906*%
%ADD11R,0.05512X0.04331*%
%ADD12R,0.05709X0.02165*%
%ADD13R,0.05709X0.02165*%
%ADD14R,0.04331X0.06693*%
%ADD15R,0.08661X0.07874*%
%ADD16C,0.00500*%
%ADD17C,0.01181*%
%ADD18C,0.01969*%
%ADD19C,0.04724*%
%ADD20R,0.04724X0.04724*%
%ADD21R,0.05906X0.05906*%
%ADD22C,0.05906*%
%ADD23C,0.12992*%
%ADD24C,0.11811*%
%ADD25R,0.06378X0.06378*%
%ADD26C,0.06378*%
%ADD27C,0.08425*%
%ADD28C,0.21654*%
%ADD29C,0.02362*%
%ADD30C,0.03937*%
%ADD31O,0.08661X0.02362*%
%ADD32R,0.04331X0.05512*%
%ADD33C,0.00787*%
%ADD34C,0.00394*%
%ADD35C,0.00098*%
%ADD36C,0.00984*%
%ADD37C,0.01000*%
%ADD38C,0.00098*%
%ADD39C,0.00800*%
%ADD40C,0.00591*%
%ADD41R,0.06312X0.06706*%
%ADD42R,0.06312X0.05131*%
%ADD43R,0.06509X0.02965*%
%ADD44R,0.06509X0.02965*%
%ADD45R,0.05131X0.07493*%
%ADD46R,0.09461X0.08674*%
%ADD47C,0.05524*%
%ADD48R,0.05524X0.05524*%
%ADD49R,0.06706X0.06706*%
%ADD50C,0.06706*%
%ADD51C,0.13792*%
%ADD52C,0.12611*%
%ADD53R,0.07178X0.07178*%
%ADD54C,0.07178*%
%ADD55C,0.09225*%
%ADD56C,0.22453*%
%ADD57C,0.03162*%
%ADD58C,0.04737*%
%ADD59O,0.09461X0.03162*%
%ADD60R,0.05131X0.06312*%
%ADD61C,0.00600*%
D37*
X159000Y1196850D02*
X162110D01*
X159000Y291339D02*
X162110D01*
X160000Y774085D02*
Y1196850D01*
Y291339D02*
Y710904D01*
X158000Y1190850D02*
X160000Y1196850D01*
X162000Y1190850D01*
X160000Y291339D02*
X162000Y297339D01*
X158000D02*
X160000Y291339D01*
X1533386Y272000D02*
Y289748D01*
X163701Y272000D02*
Y289748D01*
X878534Y273000D02*
X1533386D01*
X163701D02*
X815353D01*
X1527386Y275000D02*
X1533386Y273000D01*
X1527386Y271000D02*
X1533386Y273000D01*
X163701D02*
X169701Y271000D01*
X163701Y273000D02*
X169701Y275000D01*
D61*
X163599Y716503D02*
Y712504D01*
X159600Y716503D01*
X158601D01*
X157601Y715503D01*
Y713504D01*
X158601Y712504D01*
Y718502D02*
X157601Y719502D01*
Y721501D01*
X158601Y722501D01*
X159600D01*
X160600Y721501D01*
Y720502D01*
Y721501D01*
X161600Y722501D01*
X162599D01*
X163599Y721501D01*
Y719502D01*
X162599Y718502D01*
X158601Y724500D02*
X157601Y725500D01*
Y727499D01*
X158601Y728499D01*
X162599D01*
X163599Y727499D01*
Y725500D01*
X162599Y724500D01*
X158601D01*
X163599Y730498D02*
X162599D01*
Y731498D01*
X163599D01*
Y730498D01*
X158601Y735497D02*
X157601Y736496D01*
Y738496D01*
X158601Y739496D01*
X162599D01*
X163599Y738496D01*
Y736496D01*
X162599Y735497D01*
X158601D01*
Y741495D02*
X157601Y742494D01*
Y744494D01*
X158601Y745494D01*
X162599D01*
X163599Y744494D01*
Y742494D01*
X162599Y741495D01*
X158601D01*
X163599Y755490D02*
X161600Y753491D01*
X159600D01*
X157601Y755490D01*
X163599Y758489D02*
X159600D01*
Y759489D01*
X160600Y760489D01*
X163599D01*
X160600D01*
X159600Y761488D01*
X160600Y762488D01*
X163599D01*
Y764487D02*
X159600D01*
Y765487D01*
X160600Y766487D01*
X163599D01*
X160600D01*
X159600Y767486D01*
X160600Y768486D01*
X163599D01*
Y770485D02*
X161600Y772485D01*
X159600D01*
X157601Y770485D01*
X816953Y274399D02*
X817953Y275399D01*
X819952D01*
X820952Y274399D01*
Y273400D01*
X819952Y272400D01*
X818952D01*
X819952D01*
X820952Y271400D01*
Y270401D01*
X819952Y269401D01*
X817953D01*
X816953Y270401D01*
X825950Y269401D02*
Y275399D01*
X822951Y272400D01*
X826950D01*
X828949Y275399D02*
X832948D01*
Y274399D01*
X828949Y270401D01*
Y269401D01*
X834947D02*
Y270401D01*
X835947D01*
Y269401D01*
X834947D01*
X839946Y270401D02*
X840945Y269401D01*
X842945D01*
X843944Y270401D01*
Y274399D01*
X842945Y275399D01*
X840945D01*
X839946Y274399D01*
Y273400D01*
X840945Y272400D01*
X843944D01*
X845944Y274399D02*
X846943Y275399D01*
X848943D01*
X849942Y274399D01*
Y270401D01*
X848943Y269401D01*
X846943D01*
X845944Y270401D01*
Y274399D01*
X859939Y269401D02*
X857940Y271400D01*
Y273400D01*
X859939Y275399D01*
X862938Y269401D02*
Y273400D01*
X863938D01*
X864937Y272400D01*
Y269401D01*
Y272400D01*
X865937Y273400D01*
X866937Y272400D01*
Y269401D01*
X868936D02*
Y273400D01*
X869936D01*
X870936Y272400D01*
Y269401D01*
Y272400D01*
X871935Y273400D01*
X872935Y272400D01*
Y269401D01*
X874934D02*
X876934Y271400D01*
Y273400D01*
X874934Y275399D01*
M02*
