%FSAX25Y25*%
%MOIN*%
G70*
G01*
G75*
G04 Layer_Color=16711935*
%ADD10R,0.05118X0.05906*%
%ADD11R,0.10000X0.15000*%
%ADD12O,0.10000X0.15000*%
%ADD13R,0.15000X0.10000*%
%ADD14O,0.15000X0.10000*%
%ADD15R,0.20000X0.09500*%
%ADD16R,0.20000X0.04500*%
%ADD17R,0.04331X0.05512*%
%ADD18R,0.05512X0.04331*%
%ADD19R,0.08661X0.07874*%
%ADD20R,0.04331X0.06693*%
%ADD21R,0.01575X0.08465*%
%ADD22R,0.01575X0.08465*%
%ADD23R,0.06693X0.04331*%
%ADD24R,0.07874X0.08661*%
%ADD25R,0.08000X0.07200*%
%ADD26O,0.06500X0.03000*%
%ADD27R,0.06500X0.03000*%
%ADD28O,0.04000X0.20000*%
%ADD29R,0.01181X0.03169*%
%ADD30R,0.03169X0.01181*%
%ADD31R,0.26378X0.26378*%
%ADD32R,0.06496X0.01181*%
%ADD33R,0.41339X0.33071*%
%ADD34R,0.04134X0.12992*%
%ADD35R,0.33071X0.41339*%
%ADD36R,0.12992X0.04134*%
%ADD37R,0.04331X0.02559*%
%ADD38O,0.07480X0.02362*%
%ADD39C,0.01969*%
%ADD40O,0.02362X0.08661*%
%ADD41R,0.10236X0.05906*%
%ADD42R,0.05100X0.03500*%
%ADD43R,0.05100X0.04700*%
%ADD44R,0.04000X0.16000*%
%ADD45R,0.16000X0.04000*%
%ADD46R,0.05906X0.05118*%
%ADD47O,0.03150X0.00984*%
%ADD48O,0.00984X0.03150*%
%ADD49R,0.10236X0.10236*%
%ADD50C,0.00492*%
%ADD51C,0.03150*%
%ADD52C,0.00787*%
%ADD53C,0.01000*%
%ADD54C,0.01969*%
%ADD55C,0.01181*%
%ADD56C,0.01575*%
%ADD57C,0.02362*%
%ADD58C,0.03937*%
%ADD59C,0.00900*%
%ADD60R,0.05906X0.05906*%
%ADD61C,0.05906*%
%ADD62C,0.05000*%
%ADD63C,0.14961*%
%ADD64C,0.06299*%
%ADD65R,0.06299X0.06299*%
%ADD66C,0.02598*%
%ADD67R,0.05709X0.02165*%
%ADD68O,0.07874X0.01378*%
%ADD69C,0.00984*%
%ADD70C,0.00394*%
%ADD71C,0.00600*%
%ADD72C,0.00720*%
%ADD73C,0.00800*%
%ADD74C,0.00300*%
%ADD75R,0.00100X0.00100*%
%ADD76R,3.15000X0.30000*%
%ADD77R,0.05918X0.06706*%
%ADD78R,0.10800X0.15800*%
%ADD79O,0.10800X0.15800*%
%ADD80R,0.15800X0.10800*%
%ADD81O,0.15800X0.10800*%
%ADD82R,0.20800X0.10300*%
%ADD83R,0.20800X0.05300*%
%ADD84R,0.05131X0.06312*%
%ADD85R,0.06312X0.05131*%
%ADD86R,0.09461X0.08674*%
%ADD87R,0.05131X0.07493*%
%ADD88R,0.02375X0.09265*%
%ADD89R,0.02375X0.09265*%
%ADD90R,0.07493X0.05131*%
%ADD91R,0.08674X0.09461*%
%ADD92R,0.08800X0.08000*%
%ADD93O,0.07300X0.03800*%
%ADD94R,0.07300X0.03800*%
%ADD95O,0.04800X0.20800*%
%ADD96R,0.01981X0.03969*%
%ADD97R,0.03969X0.01981*%
%ADD98R,0.27178X0.27178*%
%ADD99R,0.07296X0.01981*%
%ADD100R,0.42139X0.33871*%
%ADD101R,0.04934X0.13792*%
%ADD102R,0.33871X0.42139*%
%ADD103R,0.13792X0.04934*%
%ADD104R,0.05131X0.03359*%
%ADD105O,0.08280X0.03162*%
%ADD106C,0.02769*%
%ADD107O,0.03162X0.09461*%
%ADD108R,0.11036X0.06706*%
%ADD109R,0.05900X0.04300*%
%ADD110R,0.05900X0.05500*%
%ADD111R,0.04800X0.16800*%
%ADD112R,0.16800X0.04800*%
%ADD113R,0.06706X0.05918*%
%ADD114O,0.03950X0.01784*%
%ADD115O,0.01784X0.03950*%
%ADD116R,0.11036X0.11036*%
%ADD117R,0.06706X0.06706*%
%ADD118C,0.06706*%
%ADD119C,0.05800*%
%ADD120C,0.15761*%
%ADD121C,0.07099*%
%ADD122R,0.07099X0.07099*%
%ADD123R,0.06509X0.02965*%
%ADD124O,0.08674X0.02178*%
%ADD125C,0.03398*%
%ADD126C,0.01500*%
%ADD127C,0.00500*%
D127*
X0195272Y-0014496D02*
Y0016504D01*
X0188272Y-0014496D02*
Y0016504D01*
X0442772Y-0014496D02*
Y0019004D01*
X-0022835Y0366504D02*
Y0397933D01*
Y0316504D02*
Y0366504D01*
Y0021504D02*
Y0316504D01*
X0024272Y0019004D02*
Y0021504D01*
X0518307Y0019004D02*
Y0054004D01*
X0547244D02*
Y0361504D01*
X0513189D02*
Y0397933D01*
X0130772Y-0014496D02*
Y0019004D01*
X0195272Y-0014496D02*
X0442772D01*
X0188272Y0016504D02*
X0195272D01*
X0130772Y-0014496D02*
X0188272D01*
X0024272Y0019004D02*
X0130772D01*
X0442772D02*
X0518307D01*
X-0022835Y0021504D02*
X0024272D01*
X0518307Y0054004D02*
X0547244D01*
X0513189Y0361504D02*
X0547244D01*
X-0022835Y0397933D02*
X0513189D01*
M02*
